<?xml version="1.0" encoding="utf-8"?>
<svg xmlns="http://www.w3.org/2000/svg" style="background: #00ced1; display: flex; shape-rendering: auto;" width="90" height="90" preserveAspectRatio="xMidYMid">
<style type="text/css">
  text {
    text-anchor: middle; font-size: 80px; opacity: 0;
  }
</style>
<g style="transform-origin:45px 45px;transform:scale(1)">
<g transform="translate(45,45)">
  <g transform="translate(0,0)"><g class="path" style="transform: rotate(0deg); transform-origin: 3.00999px -5.92px; animation: 1s linear 0s infinite normal forwards running spin-743c0fb8-b4f4-4f3d-815a-5e7ccdafe181;"><path d="M52.46-17.19L52.46-17.19L52.46-17.19Q52.46-13.55 51.54-10.78L51.54-10.78L51.54-10.78Q50.63-8.01 48.96-5.98L48.96-5.98L48.96-5.98Q47.30-3.95 45.04-2.58L45.04-2.58L45.04-2.58Q42.77-1.21 40.10-0.39L40.10-0.39L40.10-0.39Q37.42 0.43 34.43 0.78L34.43 0.78L34.43 0.78Q31.45 1.13 28.36 1.13L28.36 1.13L28.36 1.13Q24.30 1.13 20.86 0.53L20.86 0.53L20.86 0.53Q17.42-0.08 14.39-1.39L14.39-1.39L14.39-1.39Q11.37-2.70 8.57-4.77L8.57-4.77L8.57-4.77Q5.78-6.84 3.01-9.80L3.01-9.80L10.98-17.89L10.98-17.89Q12.07-15.20 13.98-12.91L13.98-12.91L13.98-12.91Q15.90-10.63 18.18-8.98L18.18-8.98L18.18-8.98Q20.47-7.34 22.93-6.41L22.93-6.41L22.93-6.41Q25.39-5.47 27.58-5.47L27.58-5.47L27.58-5.47Q30.16-5.47 32.42-5.84L32.42-5.84L32.42-5.84Q34.69-6.21 36.37-7.07L36.37-7.07L36.37-7.07Q38.05-7.93 39.00-9.36L39.00-9.36L39.00-9.36Q39.96-10.78 39.96-12.93L39.96-12.93L39.96-12.93Q39.96-14.57 39.22-15.74L39.22-15.74L39.22-15.74Q38.48-16.91 37.29-17.75L37.29-17.75L37.29-17.75Q36.09-18.59 34.57-19.18L34.57-19.18L34.57-19.18Q33.05-19.77 31.46-20.18L31.46-20.18L31.46-20.18Q29.88-20.59 28.36-20.92L28.36-20.92L28.36-20.92Q26.84-21.25 25.66-21.60L25.66-21.60L25.66-21.60Q23.36-22.27 20.86-23.03L20.86-23.03L20.86-23.03Q18.36-23.79 15.94-24.77L15.94-24.77L15.94-24.77Q13.52-25.74 11.35-27.01L11.35-27.01L11.35-27.01Q9.18-28.28 7.54-30.02L7.54-30.02L7.54-30.02Q5.90-31.76 4.92-34.04L4.92-34.04L4.92-34.04Q3.95-36.33 3.95-39.30L3.95-39.30L3.95-39.30Q3.95-42.85 4.82-45.61L4.82-45.61L4.82-45.61Q5.70-48.36 7.30-50.39L7.30-50.39L7.30-50.39Q8.91-52.42 11.09-53.81L11.09-53.81L11.09-53.81Q13.28-55.20 15.90-56.04L15.90-56.04L15.90-56.04Q18.52-56.88 21.46-57.25L21.46-57.25L21.46-57.25Q24.41-57.62 27.50-57.62L27.50-57.62L27.50-57.62Q31.72-57.62 35.18-56.84L35.18-56.84L35.18-56.84Q38.63-56.05 41.56-54.61L41.56-54.61L41.56-54.61Q44.49-53.16 46.93-51.15L46.93-51.15L46.93-51.15Q49.38-49.14 51.52-46.68L51.52-46.68L43.55-38.59L43.55-38.59Q42.62-41.41 40.96-43.67L40.96-43.67L40.96-43.67Q39.30-45.94 37.27-47.56L37.27-47.56L37.27-47.56Q35.23-49.18 33.01-50.06L33.01-50.06L33.01-50.06Q30.78-50.94 28.71-50.94L28.71-50.94L28.71-50.94Q26.02-50.94 23.75-50.57L23.75-50.57L23.75-50.57Q21.48-50.20 19.86-49.36L19.86-49.36L19.86-49.36Q18.24-48.52 17.34-47.09L17.34-47.09L17.34-47.09Q16.45-45.66 16.45-43.55L16.45-43.55L16.45-43.55Q16.45-41.88 17.11-40.70L17.11-40.70L17.11-40.70Q17.77-39.53 18.89-38.71L18.89-38.71L18.89-38.71Q20-37.89 21.41-37.36L21.41-37.36L21.41-37.36Q22.81-36.84 24.32-36.45L24.32-36.45L24.32-36.45Q25.82-36.05 27.29-35.76L27.29-35.76L27.29-35.76Q28.75-35.47 29.96-35.12L29.96-35.12L29.96-35.12Q32.30-34.45 34.88-33.71L34.88-33.71L34.88-33.71Q37.46-32.97 39.96-31.97L39.96-31.97L39.96-31.97Q42.46-30.98 44.73-29.69L44.73-29.69L44.73-29.69Q46.99-28.40 48.71-26.62L48.71-26.62L48.71-26.62Q50.43-24.84 51.45-22.52L51.45-22.52L51.45-22.52Q52.46-20.20 52.46-17.19" fill="#00ced1" stroke="none" stroke-width="none" transform="translate(-24.725006103515625,22.325)" style="fill: #020c1b;"></path></g></g>
</g>
</g>
<style id="spin-743c0fb8-b4f4-4f3d-815a-5e7ccdafe181" data-anikit="">@keyframes spin-743c0fb8-b4f4-4f3d-815a-5e7ccdafe181

}</style></svg>